# File created by Blade
# Date/Time:  Mon Nov 18 17:26:10 2013
# Frame Rate: 100.000 fps
#------------------------------------------------------
:FULLY-SPECIFIED
:DEGREES
169
root -41.915277 -3.257198 39.385503 6.601051 -1.819144 18.947266
Spine 23.105316 -1.662545 1.215957
Spine1 8.659370 -0.610003 2.904049
Spine2 -21.603887 -3.063741 -0.730011
NeckDummy -0.155420 0.124911 0.820829 14.309126 -0.514834 -0.358489
Neck 4.539561 -15.129930 43.403273
Head -0.436592 0.021220 0.277949 -5.395671 -5.284269 -2.094164
LeftShoulderDummy -0.197030 0.134141 0.842063 14.305628 -0.678004 -0.164030
LeftShoulder 7.814197 -11.160446 19.009501
LeftArm 18.584338 40.373807 16.488901
LeftForeArm 56.912745
LeftForeArmRoll 15.976979
LeftHand -34.035763 -23.003724 11.964385
LeftHandThumb1 13.895708 4.604930
LeftHandIndex1 0.120593 42.760961
LeftHandPinky1 2.330997 63.154214
RightShoulderDummy -0.151556 0.146160 0.791778 14.278243 0.518657 0.409027
RightShoulder 8.338607 4.813996 9.266184
RightArm -0.647117 65.049419 35.425785
RightForeArm 100.641747
RightForeArmRoll 25.466437
RightHand -45.113044 -21.240525 7.844734
RightHandThumb1 12.668467 9.559382
RightHandIndex1 9.451002 40.903056
RightHandPinky1 13.245447 69.289671
LeftUpLeg -17.597453 24.044366 -37.723646
LeftLeg 35.765941
LeftFoot -0.082594 -0.645839 -0.999747 -26.209985 26.955275 3.154966
LeftToeBase -1.766176
RightUpLeg -1.308040 15.275331 -31.866558
RightLeg 55.073349
RightFoot -0.528701 0.798802 0.976967 -18.774869 7.917200 -25.101482
RightToeBase -1.050830
170
root -41.945693 -3.250446 39.403418 6.558330 -1.750144 18.994464
Spine 23.123800 -1.614923 1.203634
Spine1 8.658617 -0.608114 2.890617
Spine2 -21.589411 -3.116354 -0.673690
NeckDummy -0.158569 0.125783 0.819373 14.323868 -0.570439 -0.248251
Neck 4.538332 -15.182274 43.282348
Head -0.442196 0.026020 0.275332 -5.386273 -5.299413 -2.163927
LeftShoulderDummy -0.200577 0.137062 0.841740 14.320772 -0.737400 -0.042886
LeftShoulder 7.823393 -11.317761 18.924183
LeftArm 18.450438 40.283683 16.618375
LeftForeArm 56.506039
LeftForeArmRoll 15.669374
LeftHand -33.681302 -22.983522 12.086412
LeftHandThumb1 13.917404 4.453734
LeftHandIndex1 -0.094653 42.726140
LeftHandPinky1 2.042233 63.262835
RightShoulderDummy -0.155331 0.144574 0.789274 14.293652 0.576530 0.293388
RightShoulder 8.245211 4.948632 9.249861
RightArm -0.750175 64.852739 35.516236
RightForeArm 100.604611
RightForeArmRoll 25.679173
RightHand -45.047588 -21.130193 8.031975
RightHandThumb1 12.566808 9.256741
RightHandIndex1 9.272777 40.646145
RightHandPinky1 12.950490 68.363685
LeftUpLeg -17.620774 23.995740 -37.634029
LeftLeg 35.724894
LeftFoot -0.104559 -0.644776 -0.999146 -25.899212 26.922084 2.798627
LeftToeBase -1.863516
RightUpLeg -1.314917 15.276188 -31.815118
RightLeg 55.118629
RightFoot -0.529872 0.771479 0.927070 -18.748986 8.357183 -25.002071
RightToeBase -1.149330
171
root -41.971841 -3.240431 39.424010 6.525840 -1.714806 19.031611
Spine 23.119940 -1.566549 1.203006
Spine1 8.664872 -0.577321 2.895969
Spine2 -21.584125 -3.156107 -0.711758
NeckDummy -0.160502 0.129901 0.819161 14.318275 -0.538387 -0.410796
Neck 4.364091 -15.032026 43.222579
Head -0.442949 0.023287 0.273082 -5.343862 -5.305259 -2.160646
LeftShoulderDummy -0.203278 0.138577 0.840995 14.315327 -0.708629 -0.182784
LeftShoulder 7.801604 -11.142443 18.902436
LeftArm 18.251934 40.260032 16.754221
LeftForeArm 56.140474
LeftForeArmRoll 16.152646
LeftHand -33.909393 -23.172363 12.157897
LeftHandThumb1 13.843411 4.596455
LeftHandIndex1 0.159636 42.523225
LeftHandPinky1 2.351385 62.908952
RightShoulderDummy -0.156679 0.151690 0.789944 14.288290 0.542052 0.456889
RightShoulder 8.235675 4.714966 9.131832
RightArm -0.911483 64.587277 35.516793
RightForeArm 100.554724
RightForeArmRoll 25.834704
RightHand -45.034894 -21.141693 8.191308
RightHandThumb1 12.510362 9.226944
RightHandIndex1 9.298909 40.681246
RightHandPinky1 12.670004 67.918511
LeftUpLeg -17.693624 23.979553 -37.509226
LeftLeg 35.616010
LeftFoot -0.123500 -0.641004 -1.000195 -25.634455 26.868142 2.455305
LeftToeBase -1.952335
RightUpLeg -1.308784 15.247372 -31.740233
RightLeg 55.109316
RightFoot -0.526746 0.795607 0.972898 -18.672332 8.035243 -25.104362
RightToeBase -1.081577
172
root -41.985820 -3.230570 39.440072 6.500248 -1.667916 19.097324
Spine 23.109892 -1.535675 1.193202
Spine1 8.665147 -0.556405 2.884538
Spine2 -21.561184 -3.117509 -0.709879
NeckDummy -0.156954 0.130961 0.818061 14.323547 -0.539650 -0.380047
Neck 4.357643 -15.042620 43.104026
Head -0.442249 0.027410 0.270324 -5.329162 -5.348007 -2.119670
LeftShoulderDummy -0.199417 0.139169 0.839734 14.320781 -0.705045 -0.185009
LeftShoulder 7.765502 -11.141622 18.834490
LeftArm 18.122072 40.277326 16.886247
LeftForeArm 55.765450
LeftForeArmRoll 16.303470
LeftHand -33.958031 -23.255422 12.338198
LeftHandThumb1 13.946835 4.515129
LeftHandIndex1 0.064123 42.426510
LeftHandPinky1 1.988981 62.843881
RightShoulderDummy -0.152433 0.151854 0.789056 14.294441 0.540669 0.434568
RightShoulder 8.138949 4.803898 9.082603
RightArm -0.938384 64.389780 35.639837
RightForeArm 100.511369
RightForeArmRoll 26.065827
RightHand -44.958096 -21.054110 8.195616
RightHandThumb1 12.701122 9.220065
RightHandIndex1 9.168578 40.467356
RightHandPinky1 12.731063 67.083186
LeftUpLeg -17.542187 23.961028 -37.488432
LeftLeg 35.623044
LeftFoot -0.123272 -0.644964 -1.000263 -25.297457 26.588760 2.053086
LeftToeBase -2.007680
RightUpLeg -1.273119 15.267482 -31.668336
RightLeg 55.100726
RightFoot -0.525435 0.770060 0.927965 -18.656230 8.460322 -24.959871
RightToeBase -1.183678
173
root -41.990941 -3.219967 39.456175 6.468469 -1.637610 19.139559
Spine 23.116955 -1.506798 1.188981
Spine1 8.666640 -0.551703 2.880688
Spine2 -21.553305 -3.118130 -0.720104
NeckDummy -0.158079 0.133540 0.818336 14.304536 -0.523051 -0.407465
Neck 4.284743 -14.992735 43.063752
Head -0.443923 0.028379 0.269795 -5.323633 -5.331036 -2.155005
LeftShoulderDummy -0.200658 0.141587 0.840062 14.302686 -0.692972 -0.196416
LeftShoulder 7.739750 -11.097888 18.828960
LeftArm 17.990152 40.220535 17.071794
LeftForeArm 55.377711
LeftForeArmRoll 16.513843
LeftHand -34.022657 -23.305862 12.398993
LeftHandThumb1 13.853560 4.429634
LeftHandIndex1 0.165176 42.118763
LeftHandPinky1 2.147928 62.498369
RightShoulderDummy -0.153626 0.154459 0.789672 14.275816 0.525285 0.450066
RightShoulder 8.068777 4.773665 9.003716
RightArm -1.052156 64.157426 35.691581
RightForeArm 100.452190
RightForeArmRoll 26.248053
RightHand -44.881823 -21.027546 8.295420
RightHandThumb1 12.689168 9.202784
RightHandIndex1 8.992664 40.298506
RightHandPinky1 12.476030 66.311843
LeftUpLeg -17.477078 23.938432 -37.441029
LeftLeg 35.628251
LeftFoot -0.125726 -0.644596 -1.002516 -25.115134 26.406026 1.736575
LeftToeBase -2.114364
RightUpLeg -1.265327 15.269046 -31.578768
RightLeg 55.064783
RightFoot -0.530088 0.795046 0.969877 -18.608043 8.113050 -25.052435
RightToeBase -1.096099
